<?xml version="1.0" encoding="UTF-8" standalone="no"?>
<!-- Created with Inkscape (http://www.inkscape.org/) -->

<svg
   xmlns:dc="http://purl.org/dc/elements/1.1/"
   xmlns:cc="http://creativecommons.org/ns#"
   xmlns:rdf="http://www.w3.org/1999/02/22-rdf-syntax-ns#"
   xmlns:svg="http://www.w3.org/2000/svg"
   xmlns="http://www.w3.org/2000/svg"
   xmlns:sodipodi="http://sodipodi.sourceforge.net/DTD/sodipodi-0.dtd"
   xmlns:inkscape="http://www.inkscape.org/namespaces/inkscape"
   width="256px"
   height="256px"
   viewBox="0 0 256 256"
   id="SVGRoot"
   version="1.1"
   inkscape:version="0.91+devel+osxmenu r12882"
   inkscape:export-filename="/Users/keithconger/Desktop/cog.png"
   inkscape:export-xdpi="192"
   inkscape:export-ydpi="192"
   sodipodi:docname="cog.svg">
  <sodipodi:namedview
     id="base"
     pagecolor="#ffffff"
     bordercolor="#666666"
     borderopacity="1.0"
     inkscape:pageopacity="0.0"
     inkscape:pageshadow="2"
     inkscape:zoom="0.9602649"
     inkscape:cx="128"
     inkscape:cy="128"
     inkscape:document-units="px"
     inkscape:current-layer="layer1"
     showgrid="false"
     inkscape:window-width="1129"
     inkscape:window-height="1000"
     inkscape:window-x="372"
     inkscape:window-y="41"
     inkscape:window-maximized="0"
     inkscape:grid-bbox="true" />
  <defs
     id="defs4526" />
  <metadata
     id="metadata4529">
    <rdf:RDF>
      <cc:Work
         rdf:about="">
        <dc:format>image/svg+xml</dc:format>
        <dc:type
           rdf:resource="http://purl.org/dc/dcmitype/StillImage" />
        <dc:title></dc:title>
      </cc:Work>
    </rdf:RDF>
  </metadata>
  <g
     id="layer1"
     inkscape:groupmode="layer"
     inkscape:label="Layer 1">
    <g
       id="cog"
       transform="matrix(5.1952868,0,0,5.1952868,13.70369,13.70369)"
       style="fill:#000000;fill-opacity:1;stroke:#000000;stroke-opacity:1">
      <path
         style="fill:#000000;fill-opacity:1;stroke:#000000;stroke-opacity:1"
         inkscape:connector-curvature="0"
         d="m 44,24.707 0,-5.5 -6.574,-2.738 C 37.242,15.953 37.049,15.454 36.813,14.964 L 39.469,8.358 35.578,4.469 29.029,7.165 C 28.531,6.923 28.021,6.72 27.494,6.531 L 24.707,0 19.207,0 16.489,6.509 C 15.941,6.703 15.414,6.906 14.894,7.155 L 8.357,4.528 4.469,8.416 7.134,14.894 C 6.875,15.426 6.667,15.968 6.467,16.527 L 0,19.293 l 0,5.5 6.472,2.697 c 0.199,0.559 0.413,1.1 0.67,1.633 l -2.615,6.52 3.888,3.889 6.494,-2.676 c 0.522,0.248 1.054,0.447 1.601,0.635 l 2.783,6.509 5.5,0 2.721,-6.543 c 0.523,-0.193 1.039,-0.396 1.533,-0.633 l 6.596,2.643 3.889,-3.889 -2.709,-6.562 c 0.232,-0.494 0.418,-0.994 0.602,-1.504 L 44,24.707 Z m -22.043,6.876 c -5.289,0 -9.582,-4.292 -9.582,-9.583 0,-5.291 4.293,-9.583 9.582,-9.583 5.292,0 9.583,4.293 9.583,9.583 0,5.29 -4.292,9.583 -9.583,9.583 z"
         id="path4516" />
    </g>
  </g>
</svg>
