<?xml version="1.0" encoding="UTF-8" standalone="no"?>
<!-- Created with Inkscape (http://www.inkscape.org/) -->

<svg
   xmlns:dc="http://purl.org/dc/elements/1.1/"
   xmlns:cc="http://creativecommons.org/ns#"
   xmlns:rdf="http://www.w3.org/1999/02/22-rdf-syntax-ns#"
   xmlns:svg="http://www.w3.org/2000/svg"
   xmlns="http://www.w3.org/2000/svg"
   xmlns:sodipodi="http://sodipodi.sourceforge.net/DTD/sodipodi-0.dtd"
   xmlns:inkscape="http://www.inkscape.org/namespaces/inkscape"
   width="256px"
   height="256px"
   viewBox="0 0 256 256"
   id="SVGRoot"
   version="1.1"
   inkscape:version="0.91+devel+osxmenu r12882"
   inkscape:export-filename="/Users/keithconger/Desktop/uneven_terrain.png"
   inkscape:export-xdpi="192"
   inkscape:export-ydpi="192"
   sodipodi:docname="uneven_terrain.svg">
  <sodipodi:namedview
     id="base"
     pagecolor="#ffffff"
     bordercolor="#666666"
     borderopacity="1.0"
     inkscape:pageopacity="0.0"
     inkscape:pageshadow="2"
     inkscape:zoom="3.7967191"
     inkscape:cx="146.83736"
     inkscape:cy="111.10256"
     inkscape:document-units="px"
     inkscape:current-layer="layer1"
     showgrid="false"
     inkscape:window-width="1704"
     inkscape:window-height="1139"
     inkscape:window-x="0"
     inkscape:window-y="23"
     inkscape:window-maximized="0"
     inkscape:grid-bbox="true" />
  <defs
     id="defs4516" />
  <metadata
     id="metadata4519">
    <rdf:RDF>
      <cc:Work
         rdf:about="">
        <dc:format>image/svg+xml</dc:format>
        <dc:type
           rdf:resource="http://purl.org/dc/dcmitype/StillImage" />
        <dc:title></dc:title>
      </cc:Work>
    </rdf:RDF>
  </metadata>
  <g
     id="layer1"
     inkscape:groupmode="layer"
     inkscape:label="Layer 1">
    <g
       id="g5168"
       transform="matrix(1.0215141,0,0,1.0215141,-3.7465977,-20.540065)">
      <rect
         y="216.22882"
         x="13.169265"
         height="29.762539"
         width="231.51569"
         id="rect5125"
         style="opacity:1;fill:#ffffff;fill-opacity:1;stroke:#000000;stroke-width:1.00157475;stroke-miterlimit:4;stroke-dasharray:none;stroke-opacity:1" />
      <path
         inkscape:connector-curvature="0"
         id="path5139"
         d="M 13.169265,216.22882 C 75.035336,109.07364 75.035336,109.07364 75.035336,109.07364 l 37.513954,64.97608 64.18225,-128.494575 67.69002,170.673675"
         style="fill:none;fill-rule:evenodd;stroke:#000000;stroke-width:1px;stroke-linecap:butt;stroke-linejoin:miter;stroke-opacity:1" />
      <path
         inkscape:connector-curvature="0"
         id="path5141"
         d="m 14.462543,215.3744 c 0.186216,-0.55865 60.40983,-104.80759 60.551238,-104.81607 0.08195,-0.005 8.510799,14.47524 18.730788,32.17812 10.219991,17.70287 18.686631,32.22005 18.814751,32.2604 0.12812,0.0403 14.56482,-28.66664 32.08156,-63.79329 17.51673,-35.126648 31.91732,-63.864596 32.00131,-63.862107 0.11843,0.0035 32.23985,80.840647 63.91851,160.858047 l 2.94573,7.44063 -114.56623,0 c -76.934744,0 -114.537139,-0.0873 -114.477657,-0.26573 z"
         style="opacity:1;fill:#000000;fill-opacity:1;stroke:#000000;stroke-width:0.26380005;stroke-miterlimit:4;stroke-dasharray:none;stroke-opacity:1" />
      <path
         inkscape:connector-curvature="0"
         id="path5143"
         d="m 13.891093,231.12719 0,-14.3545 115.099377,0 115.09938,0 0,14.3545 0,14.3545 -115.09938,0 -115.099377,0 0,-14.3545 z"
         style="opacity:1;fill:#000000;fill-opacity:1;stroke:#000000;stroke-width:0.26380005;stroke-miterlimit:4;stroke-dasharray:none;stroke-opacity:1" />
      <path
         inkscape:connector-curvature="0"
         id="path5145"
         d="m 12.837551,231.15579 0,-15.11606 31.01362,-53.75061 c 17.05749,-29.56284 31.09915,-53.72485 31.203691,-53.69336 0.10454,0.0315 8.499996,14.45786 18.656571,32.05858 10.156567,17.60072 18.568407,32.10723 18.692967,32.23667 0.12864,0.1337 14.06196,-27.51166 32.25745,-64.00263 22.23999,-44.602192 32.09641,-64.117218 32.24502,-63.842905 0.11771,0.217293 15.36109,38.61887 33.87417,85.336835 18.51308,46.71797 33.81814,85.07335 34.01125,85.23418 0.2851,0.23746 0.3511,3.14626 0.3511,15.47389 l 0,15.18146 -116.15292,0 -116.152919,0 0,-15.11605 z m 116.152919,-14.3831 115.09488,0 0.0715,14.35453 0.0715,14.35453 -0.003,-14.42038 -0.003,-14.42037 -115.29692,-0.0661 -115.296913,-0.0661 0.06355,14.55234 0.06355,14.55233 0.07039,-14.42034 0.07039,-14.42035 115.094883,0 z M 27.411277,215.4632 c -6.832797,-0.0765 -12.500674,-0.21665 -12.595282,-0.3114 -0.09461,-0.0948 1.273809,-2.70227 3.040927,-5.79448 3.747048,-6.55681 3.567534,-6.22833 3.216417,-5.88559 -0.148402,0.14487 -1.820427,2.9598 -3.715611,6.2554 l -3.445789,5.99202 12.961303,-0.0584 12.961303,-0.0584 -12.423268,-0.13913 z m 215.862513,-1.12682 c -0.57686,-1.46369 -0.96325,-2.07969 -0.63392,-1.01064 0.31394,1.01907 0.9195,2.39341 1.05459,2.39341 0.0684,0 -0.12093,-0.62225 -0.42067,-1.38277 z m -0.99549,-2.48241 c -0.31049,-0.53394 -0.38547,-0.36304 -0.13131,0.2993 0.0903,0.23538 0.21972,0.37249 0.28753,0.30468 0.0678,-0.0678 -0.002,-0.33961 -0.15622,-0.60398 z m -0.52677,-1.31693 c -0.31049,-0.53393 -0.38547,-0.36303 -0.13131,0.2993 0.0903,0.23539 0.21972,0.37249 0.28753,0.30468 0.0678,-0.0678 -0.002,-0.3396 -0.15622,-0.60398 z m -0.52677,-1.31692 c -0.31049,-0.53394 -0.38547,-0.36304 -0.13131,0.29929 0.0903,0.23539 0.21972,0.3725 0.28753,0.30468 0.0678,-0.0678 -0.002,-0.3396 -0.15622,-0.60397 z m -0.52677,-1.31693 c -0.31049,-0.53394 -0.38547,-0.36304 -0.13131,0.2993 0.0903,0.23538 0.21972,0.37249 0.28753,0.30468 0.0678,-0.0678 -0.002,-0.33961 -0.15622,-0.60398 z m -0.52677,-1.31693 c -0.31049,-0.53393 -0.38547,-0.36303 -0.13131,0.2993 0.0903,0.23539 0.21972,0.3725 0.28753,0.30468 0.0678,-0.0678 -0.002,-0.3396 -0.15622,-0.60398 z m -0.52677,-1.31692 c -0.31049,-0.53394 -0.38547,-0.36304 -0.13131,0.29929 0.0903,0.23539 0.21971,0.3725 0.28753,0.30468 0.0678,-0.0678 -0.002,-0.3396 -0.15622,-0.60397 z m -0.52677,-1.31693 c -0.31049,-0.53394 -0.38547,-0.36304 -0.13131,0.2993 0.0903,0.23538 0.21971,0.37249 0.28753,0.30468 0.0678,-0.0678 -0.002,-0.33961 -0.15622,-0.60398 z m -0.52677,-1.31692 c -0.31049,-0.53394 -0.38547,-0.36304 -0.13131,0.29929 0.0903,0.23539 0.21971,0.3725 0.28753,0.30468 0.0678,-0.0678 -0.002,-0.3396 -0.15622,-0.60397 z M 21.924344,202.2865 c 0.224733,-0.43459 0.349344,-0.79016 0.276913,-0.79016 -0.07243,0 -0.315565,0.35557 -0.540298,0.79016 -0.224733,0.43459 -0.349344,0.79016 -0.276913,0.79016 0.07243,0 0.315565,-0.35557 0.540298,-0.79016 z M 237.47086,199.687 c -0.46185,-1.17991 -0.88354,-2.1015 -0.93707,-2.04796 -0.0535,0.0535 0.28054,1.06272 0.74239,2.24264 0.46185,1.17991 0.88354,2.1015 0.93707,2.04796 0.0535,-0.0535 -0.28054,-1.06272 -0.74239,-2.24264 z M 23.780275,199.06003 c 0.683964,-1.19511 1.293949,-2.26182 1.355523,-2.37047 0.06157,-0.10864 0.05607,-0.19754 -0.01224,-0.19754 -0.09955,0 -0.995907,1.49544 -2.723278,4.5434 -0.06157,0.10865 -0.05607,0.19754 0.01223,0.19754 0.0683,0 0.683792,-0.97782 1.367756,-2.17293 z m 212.440165,-2.48241 c -0.31049,-0.53393 -0.38547,-0.36303 -0.13131,0.2993 0.0903,0.23539 0.21972,0.37249 0.28753,0.30468 0.0678,-0.0678 -0.002,-0.3396 -0.15622,-0.60398 z M 25.875124,195.43848 c 0.224733,-0.43458 0.349343,-0.79015 0.276913,-0.79015 -0.07243,0 -0.315566,0.35557 -0.540299,0.79015 -0.224733,0.43459 -0.349343,0.79016 -0.276912,0.79016 0.07243,0 0.315565,-0.35557 0.540298,-0.79016 z M 235.69367,195.2607 c -0.31049,-0.53394 -0.38547,-0.36304 -0.13131,0.29929 0.0903,0.23539 0.21971,0.3725 0.28753,0.30468 0.0678,-0.0678 -0.002,-0.3396 -0.15622,-0.60397 z m -0.52677,-1.31693 c -0.31049,-0.53394 -0.38547,-0.36304 -0.13131,0.2993 0.0903,0.23538 0.21971,0.37249 0.28753,0.30468 0.0678,-0.0678 -0.002,-0.33961 -0.15622,-0.60398 z M 26.928665,193.59478 c 0.224733,-0.43458 0.349344,-0.79015 0.276913,-0.79015 -0.07243,0 -0.315565,0.35557 -0.540298,0.79015 -0.224733,0.43459 -0.349344,0.79016 -0.276913,0.79016 0.07243,0 0.315565,-0.35557 0.540298,-0.79016 z m 207.711465,-0.96794 c -0.31049,-0.53393 -0.38547,-0.36303 -0.13131,0.2993 0.0903,0.23539 0.21971,0.37249 0.28753,0.30468 0.0678,-0.0678 -0.002,-0.3396 -0.15622,-0.60398 z m -206.122824,-1.7976 c 0.405254,-0.72431 0.614554,-1.1984 0.465111,-1.05354 -0.149444,0.14486 -0.603287,0.856 -1.00854,1.58031 -0.405254,0.72431 -0.614554,1.1984 -0.465111,1.05354 0.149444,-0.14486 0.603286,-0.856 1.00854,-1.58031 z m 205.596054,0.48068 c -0.31049,-0.53394 -0.38547,-0.36304 -0.13131,0.29929 0.0903,0.23539 0.21971,0.3725 0.28753,0.30468 0.0678,-0.0678 -0.002,-0.3396 -0.15622,-0.60397 z m -0.52678,-1.31693 c -0.31048,-0.53394 -0.38546,-0.36304 -0.1313,0.2993 0.0903,0.23538 0.21971,0.37249 0.28753,0.30468 0.0678,-0.0678 -0.002,-0.33961 -0.15623,-0.60398 z M 29.825903,188.59046 c 0.224733,-0.43458 0.349344,-0.79015 0.276913,-0.79015 -0.07243,0 -0.315565,0.35557 -0.540298,0.79015 -0.224733,0.43459 -0.349344,0.79016 -0.276913,0.79016 0.07243,0 0.315565,-0.35557 0.540298,-0.79016 z m 203.233907,0.0856 c -0.31049,-0.53393 -0.38546,-0.36303 -0.1313,0.2993 0.0903,0.23539 0.21971,0.37249 0.28753,0.30468 0.0678,-0.0678 -0.002,-0.3396 -0.15623,-0.60398 z m -0.52677,-1.31692 c -0.31049,-0.53394 -0.38546,-0.36304 -0.1313,0.29929 0.0903,0.23539 0.21971,0.3725 0.28753,0.30468 0.0678,-0.0678 -0.002,-0.3396 -0.15623,-0.60397 z M 30.879444,186.74677 c 0.224733,-0.43459 0.349344,-0.79016 0.276913,-0.79016 -0.07243,0 -0.315565,0.35557 -0.540298,0.79016 -0.224733,0.43458 -0.349344,0.79015 -0.276913,0.79015 0.07243,0 0.315565,-0.35557 0.540298,-0.79015 z m 201.126826,-0.70456 c -0.31049,-0.53394 -0.38546,-0.36304 -0.1313,0.2993 0.0903,0.23538 0.21971,0.37249 0.28752,0.30468 0.0678,-0.0678 -0.002,-0.33961 -0.15622,-0.60398 z M 31.801293,185.16646 c 0.155055,-0.28973 0.222658,-0.52678 0.150227,-0.52678 -0.07243,0 -0.258557,0.23705 -0.413612,0.52678 -0.155056,0.28972 -0.222658,0.52677 -0.150227,0.52677 0.07243,0 0.258557,-0.23705 0.413612,-0.52677 z m 199.616797,-0.7609 c -0.16227,-0.46547 -0.34112,-0.80021 -0.39746,-0.74388 -0.0563,0.0563 0.0303,0.48327 0.1926,0.94874 0.16226,0.46547 0.34112,0.80022 0.39745,0.74388 0.0563,-0.0563 -0.0303,-0.48327 -0.19259,-0.94874 z M 32.723142,183.58614 c 0.224733,-0.43458 0.349343,-0.79015 0.276912,-0.79015 -0.07243,0 -0.315565,0.35557 -0.540298,0.79015 -0.224733,0.43459 -0.349343,0.79016 -0.276912,0.79016 0.07243,0 0.315565,-0.35557 0.540298,-0.79016 z M 230.68935,182.6182 c -0.31049,-0.53394 -0.38547,-0.36303 -0.13131,0.2993 0.0903,0.23538 0.21971,0.37249 0.28753,0.30468 0.0678,-0.0678 -0.002,-0.3396 -0.15622,-0.60398 z M 33.776683,181.74245 c 0.224733,-0.43459 0.349343,-0.79016 0.276913,-0.79016 -0.07243,0 -0.315566,0.35557 -0.540299,0.79016 -0.224733,0.43458 -0.349343,0.79015 -0.276912,0.79015 0.07243,0 0.315565,-0.35557 0.540298,-0.79015 z m 196.385897,-0.44117 c -0.31049,-0.53394 -0.38547,-0.36304 -0.13131,0.29929 0.0903,0.23539 0.21971,0.3725 0.28753,0.30468 0.0678,-0.0678 -0.002,-0.3396 -0.15622,-0.60397 z M 34.830224,179.89875 c 0.224733,-0.43459 0.349344,-0.79016 0.276913,-0.79016 -0.07243,0 -0.315565,0.35557 -0.540298,0.79016 -0.224733,0.43458 -0.349344,0.79015 -0.276913,0.79015 0.07243,0 0.315565,-0.35557 0.540298,-0.79015 z m 194.805586,0.0856 c -0.31049,-0.53394 -0.38547,-0.36304 -0.13131,0.29929 0.0903,0.23539 0.21971,0.3725 0.28753,0.30469 0.0678,-0.0678 -0.002,-0.33961 -0.15622,-0.60398 z m -0.52678,-1.31693 c -0.31048,-0.53393 -0.38546,-0.36303 -0.1313,0.2993 0.0903,0.23539 0.21971,0.37249 0.28753,0.30468 0.0678,-0.0678 -0.002,-0.3396 -0.15623,-0.60398 z M 35.752073,178.31844 c 0.155055,-0.28973 0.222657,-0.52677 0.150226,-0.52677 -0.07243,0 -0.258556,0.23704 -0.413612,0.52677 -0.155055,0.28972 -0.222657,0.52677 -0.150226,0.52677 0.07243,0 0.258556,-0.23705 0.413612,-0.52677 z M 228.58226,177.3505 c -0.31049,-0.53394 -0.38546,-0.36304 -0.1313,0.29929 0.0903,0.23539 0.21971,0.3725 0.28753,0.30468 0.0678,-0.0678 -0.002,-0.3396 -0.15623,-0.60397 z M 36.673921,176.73813 c 0.224733,-0.43459 0.349344,-0.79016 0.276913,-0.79016 -0.07243,0 -0.315565,0.35557 -0.540298,0.79016 -0.224733,0.43458 -0.349344,0.79015 -0.276913,0.79015 0.07243,0 0.315565,-0.35557 0.540298,-0.79015 z m 191.381569,-0.70456 c -0.31049,-0.53394 -0.38546,-0.36304 -0.1313,0.29929 0.0903,0.23539 0.21971,0.3725 0.28753,0.30469 0.0678,-0.0678 -0.002,-0.33961 -0.15623,-0.60398 z M 37.727462,174.89443 c 0.224733,-0.43459 0.349344,-0.79016 0.276913,-0.79016 -0.07243,0 -0.315565,0.35557 -0.540298,0.79016 -0.224733,0.43458 -0.349344,0.79015 -0.276913,0.79015 0.07243,0 0.315565,-0.35557 0.540298,-0.79015 z m 189.801258,-0.17779 c -0.31049,-0.53393 -0.38546,-0.36303 -0.1313,0.2993 0.0903,0.23539 0.21971,0.37249 0.28752,0.30468 0.0678,-0.0678 -0.002,-0.3396 -0.15622,-0.60398 z m -0.52677,-1.31692 c -0.31049,-0.53394 -0.38546,-0.36304 -0.1313,0.29929 0.0903,0.23539 0.21971,0.3725 0.28752,0.30468 0.0678,-0.0678 -0.002,-0.3396 -0.15622,-0.60397 z M 38.781003,173.05073 c 0.224734,-0.43458 0.349344,-0.79015 0.276913,-0.79015 -0.07243,0 -0.315564,0.35557 -0.540298,0.79015 -0.224733,0.43459 -0.349344,0.79016 -0.276913,0.79016 0.07243,0 0.315566,-0.35557 0.540298,-0.79016 z m 187.694177,-0.96794 c -0.31049,-0.53394 -0.38547,-0.36304 -0.1313,0.2993 0.0903,0.23538 0.21971,0.37249 0.28752,0.30468 0.0678,-0.0678 -0.002,-0.33961 -0.15622,-0.60398 z M 39.702852,171.47042 c 0.155055,-0.28972 0.222658,-0.52677 0.150227,-0.52677 -0.07243,0 -0.258557,0.23705 -0.413612,0.52677 -0.155055,0.28972 -0.222658,0.52677 -0.150227,0.52677 0.07243,0 0.258557,-0.23705 0.413612,-0.52677 z m 186.245558,-0.70456 c -0.31049,-0.53393 -0.38547,-0.36303 -0.1313,0.2993 0.0903,0.23539 0.21971,0.37249 0.28752,0.30468 0.0678,-0.0678 -0.002,-0.3396 -0.15622,-0.60398 z M 40.624701,169.89011 c 0.224733,-0.43459 0.349343,-0.79016 0.276912,-0.79016 -0.07243,0 -0.315564,0.35557 -0.540298,0.79016 -0.224733,0.43458 -0.349343,0.79015 -0.276912,0.79015 0.07243,0 0.315564,-0.35557 0.540298,-0.79015 z m 184.468479,-1.4157 c -0.31406,-0.82069 -0.61547,-1.44772 -0.66979,-1.39339 -0.0543,0.0543 0.15819,0.77024 0.47225,1.59093 0.31406,0.82069 0.61547,1.44772 0.66979,1.3934 0.0543,-0.0543 -0.15819,-0.77025 -0.47225,-1.59094 z m -183.414938,-0.428 c 0.224733,-0.43459 0.349344,-0.79016 0.276913,-0.79016 -0.07243,0 -0.315565,0.35557 -0.540299,0.79016 -0.224733,0.43459 -0.349343,0.79016 -0.276912,0.79016 0.07243,0 0.315564,-0.35557 0.540298,-0.79016 z m 1.053541,-1.8437 c 0.224733,-0.43458 0.349344,-0.79015 0.276913,-0.79015 -0.07243,0 -0.315565,0.35557 -0.540298,0.79015 -0.224734,0.43459 -0.349344,0.79016 -0.276913,0.79016 0.07243,0 0.315564,-0.35557 0.540298,-0.79016 z m 181.372927,-0.17778 c -0.31049,-0.53394 -0.38546,-0.36304 -0.1313,0.29929 0.0903,0.23539 0.21971,0.3725 0.28753,0.30469 0.0678,-0.0678 -0.002,-0.33961 -0.15623,-0.60398 z m -0.52677,-1.31693 c -0.31049,-0.53394 -0.38546,-0.36304 -0.1313,0.2993 0.0903,0.23538 0.21971,0.37249 0.28752,0.30468 0.0678,-0.0678 -0.002,-0.33961 -0.15622,-0.60398 z M 43.653632,164.6224 c 0.155054,-0.28972 0.222658,-0.52677 0.150227,-0.52677 -0.07243,0 -0.258558,0.23705 -0.413613,0.52677 -0.155055,0.28973 -0.222658,0.52677 -0.150227,0.52677 0.07243,0 0.258558,-0.23704 0.413613,-0.52677 z m 179.397538,-1.23132 c -0.31049,-0.53394 -0.38546,-0.36304 -0.1313,0.29929 0.0903,0.23539 0.21971,0.3725 0.28752,0.30468 0.0678,-0.0678 -0.002,-0.3396 -0.15622,-0.60397 z M 44.57548,163.04209 c 0.224734,-0.43459 0.349344,-0.79016 0.276913,-0.79016 -0.07243,0 -0.315565,0.35557 -0.540298,0.79016 -0.224734,0.43459 -0.349344,0.79016 -0.276913,0.79016 0.07243,0 0.315565,-0.35557 0.540298,-0.79016 z m 177.94892,-0.96794 c -0.31049,-0.53394 -0.38547,-0.36304 -0.1313,0.29929 0.0903,0.23539 0.21971,0.3725 0.28752,0.30469 0.0678,-0.0678 -0.002,-0.33961 -0.15622,-0.60398 z m -117.50199,-0.34899 c -0.15506,-0.28972 -0.34118,-0.52677 -0.41362,-0.52677 -0.0724,0 -0.005,0.23705 0.15023,0.52677 0.15506,0.28973 0.34118,0.52677 0.41361,0.52677 0.0724,0 0.005,-0.23704 -0.15022,-0.52677 z m -59.393389,-0.52677 c 0.224734,-0.43458 0.349344,-0.79015 0.276913,-0.79015 -0.07243,0 -0.315564,0.35557 -0.540298,0.79015 -0.224734,0.43459 -0.349344,0.79016 -0.276913,0.79016 0.07243,0 0.315565,-0.35557 0.540298,-0.79016 z m 176.368609,-0.44117 c -0.31049,-0.53394 -0.38547,-0.36303 -0.1313,0.2993 0.0903,0.23538 0.21971,0.37249 0.28752,0.30468 0.0678,-0.0678 -0.002,-0.3396 -0.15622,-0.60398 z m -118.02876,-0.87575 c -0.15506,-0.28973 -0.34119,-0.52677 -0.41362,-0.52677 -0.0724,0 -0.005,0.23704 0.15023,0.52677 0.15505,0.28972 0.34118,0.52677 0.41361,0.52677 0.0724,0 0.005,-0.23705 -0.15022,-0.52677 z m -57.418,-0.26339 c 0.155055,-0.28972 0.222658,-0.52677 0.150227,-0.52677 -0.07243,0 -0.258558,0.23705 -0.413612,0.52677 -0.155055,0.28972 -0.222658,0.52677 -0.150228,0.52677 0.07243,0 0.258558,-0.23705 0.413613,-0.52677 z m 174.91999,-0.17778 c -0.31049,-0.53394 -0.38547,-0.36304 -0.1313,0.29929 0.0903,0.23539 0.21971,0.3725 0.28752,0.30468 0.0678,-0.0678 -0.002,-0.3396 -0.15622,-0.60397 z M 47.472718,158.03777 c 0.224734,-0.43459 0.349344,-0.79016 0.276913,-0.79016 -0.07243,0 -0.315564,0.35557 -0.540298,0.79016 -0.224733,0.43458 -0.349344,0.79015 -0.276913,0.79015 0.07243,0 0.315565,-0.35557 0.540298,-0.79015 z m 173.471372,0.0856 c -0.31049,-0.53394 -0.38547,-0.36304 -0.13131,0.29929 0.0903,0.23539 0.21972,0.3725 0.28753,0.30469 0.0678,-0.0678 -0.002,-0.33961 -0.15622,-0.60398 z m -0.52677,-1.31693 c -0.31049,-0.53393 -0.38547,-0.36303 -0.13131,0.2993 0.0903,0.23539 0.21972,0.37249 0.28753,0.30468 0.0678,-0.0678 -0.002,-0.3396 -0.15622,-0.60398 z m -118.29215,-0.0856 c -0.15506,-0.28972 -0.34118,-0.52677 -0.41361,-0.52677 -0.0724,0 -0.005,0.23705 0.15022,0.52677 0.15506,0.28973 0.34118,0.52677 0.41362,0.52677 0.0724,0 0.005,-0.23704 -0.15023,-0.52677 z m -53.59891,-0.52677 c 0.224733,-0.43458 0.349343,-0.79015 0.276912,-0.79015 -0.07243,0 -0.315564,0.35557 -0.540298,0.79015 -0.224733,0.43459 -0.349343,0.79016 -0.276912,0.79016 0.07243,0 0.315564,-0.35557 0.540298,-0.79016 z m 99.66421,-52.08444 C 162.51703,75.463185 174.7688,51.038202 175.41662,49.831888 l 1.17787,-2.193297 0.776,1.666527 c 0.42679,0.916589 3.13109,7.560759 6.00955,14.76482 2.87845,7.204062 5.2738,13.058048 5.32299,13.008858 0.12998,-0.129978 -11.83746,-30.189624 -12.01919,-30.189624 -0.0841,0 -12.44955,24.593603 -27.47876,54.652448 -15.02922,30.05885 -27.26668,54.65245 -27.19437,54.65245 0.0723,0 11.85321,-23.438 26.17976,-52.08444 z m 71.70008,51.37989 c -0.31049,-0.53394 -0.38547,-0.36304 -0.13131,0.29929 0.0903,0.23539 0.21972,0.3725 0.28753,0.30468 0.0678,-0.0678 -0.002,-0.3396 -0.15622,-0.60397 z m -118.81892,-0.61237 c -0.15506,-0.28973 -0.34118,-0.52678 -0.41362,-0.52678 -0.0724,0 -0.005,0.23705 0.15023,0.52678 0.15506,0.28972 0.34118,0.52677 0.41361,0.52677 0.0724,0 0.005,-0.23705 -0.15022,-0.52677 z M 50.1149,153.42853 c 0.405255,-0.72431 0.614554,-1.19841 0.465112,-1.05354 -0.149445,0.14486 -0.603287,0.856 -1.008539,1.58031 -0.405256,0.72431 -0.614555,1.1984 -0.465113,1.05354 0.149445,-0.14486 0.603287,-0.856 1.00854,-1.58031 z m 168.92042,-0.23047 c -0.31406,-0.82069 -0.61547,-1.44771 -0.66979,-1.39339 -0.0543,0.0543 0.15819,0.77024 0.47225,1.59093 0.31406,0.82069 0.61547,1.44772 0.66979,1.3934 0.0543,-0.0543 -0.15819,-0.77025 -0.47225,-1.59094 z m -118.88554,0.0988 c -0.224735,-0.43458 -0.467869,-0.79015 -0.5403,-0.79015 -0.07243,0 0.05218,0.35557 0.276913,0.79015 0.224737,0.43459 0.467867,0.79016 0.540297,0.79016 0.0724,0 -0.0522,-0.35557 -0.27691,-0.79016 z m -0.92185,-1.58031 c -0.155055,-0.28972 -0.341181,-0.52677 -0.413612,-0.52677 -0.07243,0 -0.0048,0.23705 0.150227,0.52677 0.155055,0.28973 0.341181,0.52677 0.413612,0.52677 0.07243,0 0.0048,-0.23704 -0.150227,-0.52677 z m -47.804432,-0.52677 c 0.224733,-0.43458 0.349344,-0.79015 0.276913,-0.79015 -0.07243,0 -0.315565,0.35557 -0.540298,0.79015 -0.224734,0.43459 -0.349344,0.79016 -0.276913,0.79016 0.07243,0 0.315564,-0.35557 0.540298,-0.79016 z m 166.623352,-0.44117 c -0.31049,-0.53394 -0.38547,-0.36304 -0.1313,0.2993 0.0903,0.23538 0.21971,0.37249 0.28752,0.30468 0.0678,-0.0678 -0.002,-0.33961 -0.15622,-0.60398 z M 98.174389,149.87282 c -0.155055,-0.28972 -0.341182,-0.52677 -0.413613,-0.52677 -0.07243,0 -0.0048,0.23705 0.150227,0.52677 0.155055,0.28973 0.341182,0.52678 0.413613,0.52678 0.07243,0 0.0048,-0.23705 -0.150227,-0.52678 z m -44.89496,-1.90954 c 0.683964,-1.19511 1.293949,-2.26182 1.355523,-2.37047 0.06157,-0.10864 0.05607,-0.19754 -0.01225,-0.19754 -0.09956,0 -0.995907,1.49544 -2.72328,4.5434 -0.06157,0.10865 -0.05607,0.19754 0.01225,0.19754 0.0683,0 0.683793,-0.97782 1.367757,-2.17293 z m 164.240651,1.46837 c -0.31049,-0.53393 -0.38547,-0.36303 -0.1313,0.2993 0.0903,0.23539 0.21971,0.37249 0.28752,0.30468 0.0678,-0.0678 -0.002,-0.3396 -0.15622,-0.60398 z M 97.25254,148.29251 c -0.224733,-0.43458 -0.467867,-0.79015 -0.540298,-0.79015 -0.07243,0 0.05218,0.35557 0.276913,0.79015 0.224733,0.43459 0.467867,0.79016 0.540298,0.79016 0.07243,0 -0.05218,-0.35557 -0.276913,-0.79016 z m 119.74077,-0.17778 c -0.31049,-0.53394 -0.38547,-0.36304 -0.1313,0.29929 0.0903,0.23539 0.21971,0.3725 0.28752,0.30468 0.0678,-0.0678 -0.002,-0.3396 -0.15622,-0.60397 z m -0.52677,-1.31693 c -0.31049,-0.53394 -0.38547,-0.36304 -0.13131,0.2993 0.0903,0.23538 0.21972,0.37249 0.28753,0.30468 0.0678,-0.0678 -0.002,-0.33961 -0.15622,-0.60398 z M 95.925626,145.98789 c -0.395181,-0.68809 -0.840778,-1.3696 -0.990223,-1.51446 -0.149442,-0.14487 0.06102,0.32923 0.467688,1.05354 0.406672,0.72431 0.788744,1.40582 0.849046,1.51446 0.0603,0.10865 0.173173,0.19754 0.250819,0.19754 0.07765,0 -0.182152,-0.56298 -0.57733,-1.25108 z m 120.014144,-0.50702 c -0.31049,-0.53393 -0.38547,-0.36303 -0.13131,0.2993 0.0903,0.23539 0.21972,0.3725 0.28753,0.30468 0.0678,-0.0678 -0.002,-0.3396 -0.15622,-0.60398 z M 55.374277,144.34173 c 0.224734,-0.43458 0.349344,-0.79015 0.276913,-0.79015 -0.07243,0 -0.315564,0.35557 -0.540298,0.79015 -0.224733,0.43459 -0.349344,0.79016 -0.276913,0.79016 0.07243,0 0.315565,-0.35557 0.540298,-0.79016 z M 215.413,144.16395 c -0.31049,-0.53394 -0.38547,-0.36304 -0.13131,0.29929 0.0903,0.23539 0.21972,0.3725 0.28753,0.30469 0.0678,-0.0678 -0.002,-0.33961 -0.15622,-0.60398 z M 94.355302,143.28819 c -0.224734,-0.43458 -0.467867,-0.79015 -0.540298,-0.79015 -0.07243,0 0.05218,0.35557 0.276913,0.79015 0.224733,0.43459 0.467867,0.79016 0.540298,0.79016 0.07243,0 -0.05218,-0.35557 -0.276913,-0.79016 z m 120.530928,-0.44117 c -0.31049,-0.53394 -0.38547,-0.36304 -0.13131,0.2993 0.0903,0.23538 0.21972,0.37249 0.28753,0.30468 0.0678,-0.0678 -0.002,-0.33961 -0.15622,-0.60398 z M 57.230209,141.11526 c 0.683964,-1.19511 1.293949,-2.26182 1.355523,-2.37046 0.06157,-0.10865 0.05607,-0.19754 -0.01225,-0.19754 -0.09955,0 -0.995907,1.49544 -2.72328,4.54339 -0.06157,0.10865 -0.05607,0.19754 0.01225,0.19754 0.0683,0 0.683793,-0.97782 1.367757,-2.17293 z m 36.385768,0.92185 c -1.727373,-3.04796 -2.623726,-4.54339 -2.723281,-4.54339 -0.0683,0 -0.07381,0.0889 -0.01222,0.19753 1.727373,3.04796 2.623726,4.5434 2.723281,4.5434 0.0683,0 0.0738,-0.0889 0.01222,-0.19754 z M 214.35946,141.5301 c -0.31049,-0.53394 -0.38547,-0.36304 -0.13131,0.29929 0.0903,0.23539 0.21972,0.3725 0.28753,0.30468 0.0678,-0.0678 -0.002,-0.3396 -0.15622,-0.60397 z m -0.52677,-1.31693 c -0.31049,-0.53394 -0.38547,-0.36304 -0.13131,0.29929 0.0903,0.23539 0.21971,0.3725 0.28753,0.30469 0.0678,-0.0678 -0.002,-0.33961 -0.15622,-0.60398 z m -0.85523,-2.29145 c -0.31406,-0.82069 -0.61547,-1.44772 -0.66979,-1.3934 -0.0543,0.0543 0.15819,0.77025 0.47225,1.59094 0.31406,0.82069 0.61546,1.44771 0.66979,1.39339 0.0543,-0.0543 -0.15819,-0.77024 -0.47225,-1.59093 z M 60.127447,136.11094 c 0.683964,-1.19511 1.293949,-2.26182 1.355523,-2.37046 0.06157,-0.10865 0.05607,-0.19754 -0.01225,-0.19754 -0.09956,0 -0.995908,1.49543 -2.723281,4.54339 -0.06157,0.10865 -0.05607,0.19754 0.01225,0.19754 0.0683,0 0.683793,-0.97782 1.367757,-2.17293 z m 30.225373,0.26339 c -0.274348,-0.4708 -3.798598,-6.57476 -7.831673,-13.56434 -4.033071,-6.98959 -7.405646,-12.70687 -7.494607,-12.70506 -0.08896,0.002 -2.769265,4.526 -5.956227,10.05375 -6.764098,11.73227 -7.672114,13.34439 -7.316061,12.98918 0.145204,-0.14486 2.487763,-4.1154 5.205684,-8.82341 3.957501,-6.85523 7.317565,-12.51637 7.961284,-13.41342 0.193499,-0.26965 2.417174,3.41424 10.600645,17.56174 2.786145,4.81666 5.125127,8.75756 5.197743,8.75756 0.07261,0 -0.09244,-0.3852 -0.366788,-0.856 z m 121.63617,-0.9021 c -0.31049,-0.53393 -0.38547,-0.36303 -0.13131,0.2993 0.0903,0.23539 0.21972,0.37249 0.28753,0.30468 0.0678,-0.0678 -0.002,-0.3396 -0.15622,-0.60398 z m -0.52677,-1.31692 c -0.31049,-0.53394 -0.38547,-0.36304 -0.13131,0.29929 0.0903,0.23539 0.21972,0.3725 0.28753,0.30468 0.0678,-0.0678 -0.002,-0.3396 -0.15622,-0.60397 z m -0.52677,-1.31693 c -0.31049,-0.53394 -0.38547,-0.36304 -0.13131,0.2993 0.0903,0.23538 0.21972,0.37249 0.28753,0.30468 0.0678,-0.0678 -0.002,-0.33961 -0.15622,-0.60398 z m -0.52677,-1.31693 c -0.31049,-0.53393 -0.38547,-0.36303 -0.13131,0.2993 0.0903,0.23539 0.21972,0.37249 0.28753,0.30468 0.0678,-0.0678 -0.002,-0.3396 -0.15622,-0.60398 z m -0.52677,-1.31692 c -0.31049,-0.53394 -0.38547,-0.36304 -0.13131,0.29929 0.0903,0.23539 0.21972,0.3725 0.28753,0.30468 0.0678,-0.0678 -0.002,-0.3396 -0.15622,-0.60397 z m -0.52677,-1.31693 c -0.31049,-0.53394 -0.38547,-0.36304 -0.13131,0.2993 0.0903,0.23538 0.21971,0.37249 0.28753,0.30468 0.0678,-0.0678 -0.002,-0.33961 -0.15622,-0.60398 z m -0.52677,-1.31693 c -0.31049,-0.53393 -0.38547,-0.36303 -0.13131,0.2993 0.0903,0.23539 0.21971,0.37249 0.28753,0.30468 0.0678,-0.0678 -0.002,-0.3396 -0.15622,-0.60398 z m -0.52677,-1.31692 c -0.31049,-0.53394 -0.38547,-0.36304 -0.13131,0.29929 0.0903,0.23539 0.21971,0.3725 0.28753,0.30468 0.0678,-0.0678 -0.002,-0.3396 -0.15622,-0.60397 z m -0.52677,-1.31693 c -0.31049,-0.53394 -0.38547,-0.36304 -0.13131,0.2993 0.0903,0.23538 0.21971,0.37249 0.28753,0.30468 0.0678,-0.0678 -0.002,-0.33961 -0.15622,-0.60398 z m -0.85524,-2.29145 c -0.31406,-0.82069 -0.61546,-1.44772 -0.66978,-1.3934 -0.0543,0.0543 0.15819,0.77025 0.47225,1.59094 0.31406,0.82069 0.61546,1.44772 0.66978,1.39339 0.0543,-0.0543 -0.15818,-0.77024 -0.47225,-1.59093 z m -0.98846,-2.44948 c -0.31049,-0.53394 -0.38547,-0.36304 -0.13131,0.29929 0.0903,0.23539 0.21972,0.3725 0.28753,0.30468 0.0678,-0.0678 -0.002,-0.3396 -0.15622,-0.60397 z m -0.52677,-1.31693 c -0.31049,-0.53394 -0.38547,-0.36304 -0.13131,0.29929 0.0903,0.23539 0.21972,0.3725 0.28753,0.30469 0.0678,-0.0678 -0.002,-0.33961 -0.15622,-0.60398 z m -0.52677,-1.31693 c -0.31049,-0.53393 -0.38547,-0.36303 -0.13131,0.2993 0.0903,0.23539 0.21971,0.37249 0.28753,0.30468 0.0678,-0.0678 -0.002,-0.3396 -0.15622,-0.60398 z m -0.52677,-1.31692 c -0.31049,-0.53394 -0.38547,-0.36304 -0.13131,0.29929 0.0903,0.23539 0.21971,0.3725 0.28753,0.30468 0.0678,-0.0678 -0.002,-0.3396 -0.15622,-0.60397 z m -0.52677,-1.31693 c -0.31049,-0.53394 -0.38547,-0.36304 -0.13131,0.2993 0.0903,0.23538 0.21971,0.37249 0.28753,0.30468 0.0678,-0.0678 -0.002,-0.33961 -0.15622,-0.60398 z m -0.52677,-1.31693 c -0.31049,-0.53393 -0.38547,-0.36303 -0.13131,0.2993 0.0903,0.23539 0.21971,0.37249 0.28753,0.30468 0.0678,-0.0678 -0.002,-0.3396 -0.15622,-0.60398 z m -0.52678,-1.31692 c -0.31048,-0.53394 -0.38546,-0.36304 -0.1313,0.29929 0.0903,0.23539 0.21971,0.3725 0.28753,0.30468 0.0678,-0.0678 -0.002,-0.3396 -0.15623,-0.60397 z m -0.52677,-1.31693 c -0.31049,-0.53394 -0.38546,-0.36304 -0.1313,0.2993 0.0903,0.23538 0.21971,0.37249 0.28753,0.30468 0.0678,-0.0678 -0.002,-0.33961 -0.15623,-0.60398 z m -0.52677,-1.31693 c -0.31049,-0.53393 -0.38546,-0.36303 -0.1313,0.2993 0.0903,0.23539 0.21971,0.37249 0.28752,0.30468 0.0678,-0.0678 -0.002,-0.3396 -0.15622,-0.60398 z m -0.52677,-1.31692 c -0.31049,-0.53394 -0.38546,-0.36304 -0.1313,0.29929 0.0903,0.23539 0.21971,0.3725 0.28752,0.30468 0.0678,-0.0678 -0.002,-0.3396 -0.15622,-0.60397 z m -0.58818,-1.63665 c -0.16227,-0.46547 -0.34112,-0.80022 -0.39746,-0.74388 -0.0563,0.0563 0.0303,0.48327 0.1926,0.94874 0.16226,0.46547 0.34112,0.80021 0.39745,0.74388 0.0563,-0.0563 -0.0303,-0.48327 -0.19259,-0.94874 z m -0.72874,-1.78736 c -0.31049,-0.53394 -0.38547,-0.36304 -0.13131,0.29929 0.0903,0.23539 0.21971,0.3725 0.28753,0.30469 0.0678,-0.0678 -0.002,-0.33961 -0.15622,-0.60398 z m -0.52677,-1.31693 c -0.31049,-0.53394 -0.38547,-0.36304 -0.13131,0.2993 0.0903,0.23538 0.21971,0.37249 0.28753,0.30468 0.0678,-0.0678 -0.002,-0.3396 -0.15622,-0.60398 z m -0.52678,-1.31692 c -0.31048,-0.53394 -0.38546,-0.36304 -0.1313,0.29929 0.0903,0.23539 0.21971,0.3725 0.28753,0.30468 0.0678,-0.0678 -0.002,-0.3396 -0.15623,-0.60397 z m -0.52677,-1.31693 c -0.31048,-0.53394 -0.38546,-0.36304 -0.1313,0.29929 0.0903,0.23539 0.21971,0.3725 0.28753,0.30469 0.0678,-0.0678 -0.002,-0.33961 -0.15623,-0.60398 z m -0.52677,-1.316927 c -0.31049,-0.533938 -0.38546,-0.363038 -0.1313,0.299295 0.0903,0.235392 0.21971,0.372492 0.28753,0.304682 0.0678,-0.0678 -0.002,-0.339604 -0.15623,-0.603977 z m -0.52677,-1.316927 c -0.31049,-0.533937 -0.38546,-0.363037 -0.1313,0.299295 0.0903,0.235388 0.21971,0.372496 0.28752,0.304682 0.0678,-0.06781 -0.002,-0.339604 -0.15622,-0.603977 z m -0.52677,-1.316926 c -0.31049,-0.533938 -0.38546,-0.363038 -0.1313,0.299295 0.0903,0.235387 0.21971,0.372495 0.28752,0.304681 0.0678,-0.06781 -0.002,-0.339603 -0.15622,-0.603976 z m -0.52677,-1.316927 c -0.31049,-0.533937 -0.38547,-0.363037 -0.1313,0.299295 0.0903,0.235388 0.21971,0.372496 0.28752,0.304682 0.0678,-0.06781 -0.002,-0.339604 -0.15622,-0.603977 z m -0.52677,-1.316926 c -0.31049,-0.533938 -0.38547,-0.363038 -0.1313,0.299295 0.0903,0.235387 0.21971,0.372495 0.28752,0.304681 0.0678,-0.06781 -0.002,-0.339603 -0.15622,-0.603976 z M 195.13233,93.0672 c -0.31049,-0.533937 -0.38547,-0.363037 -0.1313,0.299295 0.0903,0.235388 0.21971,0.372496 0.28752,0.304682 0.0678,-0.06781 -0.002,-0.339604 -0.15622,-0.603977 z m -1.64806,-4.264171 c -0.75421,-1.901584 -1.41455,-3.414179 -1.4674,-3.361326 -0.0529,0.05286 0.52099,1.651942 1.27521,3.553523 0.75421,1.901584 1.41455,3.41418 1.4674,3.361326 0.0529,-0.05286 -0.52099,-1.651942 -1.27521,-3.553523 z m -1.77595,-4.427544 c -0.31049,-0.533937 -0.38547,-0.363037 -0.1313,0.299295 0.0903,0.235388 0.21971,0.372496 0.28752,0.304682 0.0678,-0.06781 -0.002,-0.339604 -0.15622,-0.603977 z m -0.52677,-1.316926 c -0.31049,-0.533938 -0.38547,-0.363037 -0.1313,0.299295 0.0903,0.235387 0.21971,0.372495 0.28752,0.304681 0.0678,-0.06781 -0.002,-0.339603 -0.15622,-0.603976 z m -0.52677,-1.316927 c -0.31049,-0.533937 -0.38547,-0.363037 -0.1313,0.299295 0.0903,0.235388 0.21971,0.372496 0.28752,0.304682 0.0678,-0.06781 -0.002,-0.339604 -0.15622,-0.603977 z m -0.52677,-1.316926 c -0.31049,-0.533938 -0.38547,-0.363037 -0.13131,0.299295 0.0903,0.235387 0.21972,0.372495 0.28753,0.304681 0.0678,-0.06781 -0.002,-0.339603 -0.15622,-0.603976 z m -0.52677,-1.316927 c -0.31049,-0.533937 -0.38547,-0.363037 -0.13131,0.299295 0.0903,0.235388 0.21972,0.372496 0.28753,0.304682 0.0678,-0.06781 -0.002,-0.339604 -0.15622,-0.603977 z m -0.52677,-1.316926 c -0.31049,-0.533938 -0.38547,-0.363037 -0.13131,0.299295 0.0903,0.235387 0.21972,0.372495 0.28753,0.304681 0.0678,-0.06781 -0.002,-0.339603 -0.15622,-0.603976 z"
         style="opacity:1;fill:#000000;fill-opacity:1;stroke:#000000;stroke-width:0.26380005;stroke-miterlimit:4;stroke-dasharray:none;stroke-opacity:1" />
      <path
         inkscape:connector-curvature="0"
         id="path5147"
         d="m 12.837551,231.09401 0,-15.17784 19.175988,-33.21921 c 34.780925,-60.25217 42.849428,-74.16591 43.011244,-74.1708 0.152843,-0.005 6.733867,11.30984 27.496127,47.27283 5.18519,8.98144 9.57359,16.48921 9.752,16.68392 0.26218,0.28614 6.44871,-11.88803 32.25647,-63.47585 17.56264,-35.106442 32.02386,-63.929622 32.13605,-64.051514 0.11219,-0.121892 1.98294,4.263474 4.15724,9.745256 33.83792,85.311478 50.10726,126.269758 60.14062,151.404788 2.08173,5.21503 3.87386,9.52138 3.98253,9.56966 0.10866,0.0483 0.19757,6.95228 0.19757,15.3422 l 0,15.25439 -116.15292,0 -116.152919,0 0,-15.17783 z m 5.531092,-15.64756 c -1.955636,-0.0974 -3.598013,-0.19441 -3.649727,-0.21558 -0.05171,-0.0212 -0.02179,-0.24591 0.06649,-0.49942 0.133808,-0.38422 0.09467,-0.37584 -0.235206,0.0504 -0.217648,0.28119 -0.395724,0.60713 -0.395724,0.72431 0,0.11717 1.74822,0.19153 3.884933,0.16524 l 3.884933,-0.0478 -3.555701,-0.1771 z M 15.73479,213.0853 c 0.155055,-0.28973 0.222657,-0.52677 0.150226,-0.52677 -0.07243,0 -0.258556,0.23704 -0.413612,0.52677 -0.155055,0.28972 -0.222657,0.52677 -0.150226,0.52677 0.07243,0 0.258556,-0.23705 0.413612,-0.52677 z M 73.679556,112.7355 c 0.155055,-0.28973 0.222658,-0.52677 0.150227,-0.52677 -0.07243,0 -0.258558,0.23704 -0.413613,0.52677 -0.155054,0.28972 -0.222658,0.52677 -0.150227,0.52677 0.07243,0 0.258558,-0.23705 0.413613,-0.52677 z m 2.172852,-1.31179 c -0.770162,-1.39497 -0.952588,-1.38117 -1.672989,0.12655 -0.197863,0.41411 -0.158698,0.40003 0.183119,-0.0658 0.58181,-0.79297 0.755336,-0.75285 1.4241,0.32923 0.850658,1.37639 0.895189,1.11237 0.06577,-0.38994 z M 177.2455,48.130701 c -0.24554,-0.682841 -0.51432,-1.241529 -0.59728,-1.241529 -0.083,0 -0.35445,0.444463 -0.60332,0.987695 l -0.45248,0.987695 0.51294,-0.648641 0.51294,-0.64864 0.46474,0.974565 c 0.62738,1.315624 0.70907,1.108891 0.16246,-0.411145 z"
         style="opacity:1;fill:#000000;fill-opacity:1;stroke:#000000;stroke-width:0.26380005;stroke-miterlimit:4;stroke-dasharray:none;stroke-opacity:1" />
    </g>
  </g>
</svg>
